<?xml version="1.0" encoding="utf-8"?>
<!-- Generator: Adobe Illustrator 24.3.0, SVG Export Plug-In . SVG Version: 6.00 Build 0)  -->
<svg version="1.1" id="Layer_1" xmlns="http://www.w3.org/2000/svg" xmlns:xlink="http://www.w3.org/1999/xlink" x="0px" y="0px"
	 viewBox="0 0 512 512" style="enable-background:new 0 0 512 512;" xml:space="preserve">
<style type="text/css">
	.st0{fill:#E43225;}
	.st1{fill:#F7971D;}
</style>
<g id="XMLID_1_">
	<g id="XMLID_2_">
		<path id="XMLID_3_" class="st0" d="M127.45,285.77V206.9h46.63v9.96h-36.95v24.22h33.07v9.96h-33.07v24.91h39.58v9.96h-49.26
			V285.77z"/>
		<path id="XMLID_4_" class="st0" d="M225.83,285.77l-16.05-21.03l-16.05,21.03h-11.35l21.86-28.09l-22.97-29.06h12.59l15.91,21.73
			l15.91-21.73h12.59l-21.86,28.92l20.76,28.09h-11.35V285.77z"/>
		<path id="XMLID_5_" class="st0" d="M252.82,277.2v38.88h-9.82v-58.26c0-14.81,11.35-30.58,29.06-30.58
			c17.85,0,31.41,11.35,31.41,29.89c0,18.27-13.56,30.58-29.2,30.58C266.52,287.85,256.42,284.53,252.82,277.2z M293.09,257.13
			c0-12.59-8.16-20.34-22.83-19.65c-6.92,0.28-17.85,5.4-16.88,23.66c0.28,5.81,6.37,17.02,19.65,17.02
			C284.64,278.3,293.09,271.52,293.09,257.13z"/>
		<path id="XMLID_6_" class="st0" d="M311.63,285.77v-57.15h9.55v6.09c4.7-5.26,11.9-7.33,19.79-7.33v10.38
			c-1.11-0.14-12.59-1.52-19.79,13.42v34.59L311.63,285.77L311.63,285.77z"/>
		<path id="XMLID_7_" class="st0" d="M343.73,257.13c0-16.61,11.76-29.89,28.09-29.89c20.2,0,27.81,13.42,27.81,30.58v4.57h-45.39
			c0.69,10.79,10.38,16.47,19.23,16.19c6.64-0.14,11.07-2.21,15.78-6.92l6.23,6.64c-5.81,5.67-13.42,9.41-22.69,9.41
			C355.91,287.85,343.73,275.12,343.73,257.13z M371.13,236.93c-9.27,0-16.33,8.03-16.74,16.61h35.15
			C389.26,245.09,383.31,236.93,371.13,236.93z"/>
		<path id="XMLID_8_" class="st0" d="M404.48,277.75l7.06-6.23c-0.14,0.14,3.6,3.74,4.01,4.15c1.66,1.38,3.46,2.35,5.4,2.77
			c6.23,1.66,17.3,1.11,17.99-7.2c0.42-4.7-3.18-7.33-7.2-8.86c-5.26-1.94-10.93-2.63-16.05-4.98c-5.81-2.63-9.55-7.2-9.55-13.7
			c0-17.16,24.35-20.06,35.56-12.04c0.55,0.42,5.95,5.26,5.81,5.54l-7.2,5.54c-3.46-4.15-6.92-6.37-14.39-6.37
			c-3.74,0-8.86,1.52-9.96,5.67c-1.52,5.67,4.98,7.75,9.13,8.86c5.67,1.52,11.76,2.21,16.74,5.4c6.78,4.29,8.44,13.42,5.81,20.48
			c-2.91,7.75-11.21,10.79-18.82,11.07c-8.99,0.42-16.74-2.49-23.11-8.72C405.59,278.99,404.48,277.75,404.48,277.75z"/>
		<path id="XMLID_17_" class="st0" d="M454.16,277.75l7.06-6.23c-0.14,0.14,3.6,3.74,4.01,4.15c1.66,1.38,3.46,2.35,5.4,2.77
			c6.23,1.66,17.3,1.11,17.99-7.2c0.42-4.7-3.18-7.33-7.2-8.86c-5.26-1.94-10.93-2.63-16.05-4.98c-5.81-2.63-9.55-7.2-9.55-13.7
			c0-17.16,24.35-20.06,35.56-12.04c0.55,0.42,5.95,5.26,5.81,5.54l-7.2,5.54c-3.46-4.15-6.92-6.37-14.39-6.37
			c-3.74,0-8.86,1.52-9.96,5.67c-1.52,5.67,4.98,7.75,9.13,8.86c5.67,1.52,11.76,2.21,16.74,5.4c6.78,4.29,8.44,13.42,5.81,20.48
			c-2.91,7.75-11.21,10.79-18.82,11.07c-8.99,0.42-16.74-2.49-23.11-8.72C455.4,278.99,454.16,277.75,454.16,277.75z"/>
		<g id="XMLID_19_">
			<path id="XMLID_20_" class="st0" d="M500.24,228.62v-6.09h-2.21v-1.25h5.67v1.11h-2.21v6.09h-1.25V228.62z"/>
			<path id="XMLID_22_" class="st0" d="M510.75,228.62v-5.54l-2.21,5.54h-0.55l-2.21-5.54v5.54h-1.25v-7.33h1.8l1.94,4.98l1.94-4.98
				h1.8v7.2h-1.25V228.62z"/>
		</g>
	</g>
	<g id="XMLID_24_">
		<path id="XMLID_25_" class="st1" d="M62.13,285.77l-6.92-18.82H17.02l-6.92,18.82H0l30.58-78.88h11.07l30.58,78.88H62.13z
			 M35.42,218.11l-14.25,39.02h29.89L35.42,218.11z"/>
		<path id="XMLID_28_" class="st1" d="M78.05,285.77V206.9h9.82v78.88H78.05z"/>
		<path id="XMLID_31_" class="st1" d="M102.82,285.77v-55.9h9.82v55.9H102.82z"/>
		<path id="XMLID_33_" class="st1" d="M122.19,211.6c0-0.14,0-0.28,0-0.55c0-0.28,0-0.28,0-0.55c-7.61-0.28-13.7-6.37-13.84-13.98
			c-0.14,0-0.42,0-0.55,0c-0.14,0-0.42,0-0.55,0c-0.28,7.61-6.37,13.7-13.84,13.98c0,0.14,0,0.28,0,0.55c0,0.28,0,0.28,0,0.55
			c7.61,0.28,13.7,6.37,13.84,13.98c0.14,0,0.42,0,0.55,0c0.14,0,0.42,0,0.55,0C108.49,218.11,114.58,212.02,122.19,211.6z"/>
	</g>
</g>
</svg>
