<svg width="366" height="119" viewBox="0 0 366 119" fill="none" xmlns="http://www.w3.org/2000/svg">
<rect width="366" height="118.258" fill="#6CAB52"/>
<path d="M25.4478 72.762V44.6303H34.1978C45.3636 44.6303 50.9466 49.2009 50.9466 58.3425C50.9466 62.6856 49.3924 66.177 46.2843 68.8193C43.1909 71.4482 39.0442 72.762 33.8442 72.762H25.4478ZM29.1598 47.6126V69.7795H33.8884C38.0425 69.7795 41.2759 68.7925 43.5886 66.8185C45.9013 64.8431 47.0577 62.0442 47.0577 58.4215C47.0577 51.2151 42.7416 47.6126 34.1094 47.6126H29.1598ZM93.4504 71.5848C91.1083 72.683 88.1916 73.2334 84.7005 73.2334C80.1929 73.2334 76.5838 71.9451 73.8733 69.3684C71.1629 66.7917 69.8077 63.4115 69.8077 59.2264C69.8077 54.7266 71.3324 51.0906 74.3815 48.3184C77.4308 45.5462 81.2976 44.1595 85.982 44.1595C88.9871 44.1595 91.4765 44.5454 93.4504 45.3172V48.8286C91.1819 47.7037 88.6777 47.1412 85.9378 47.1412C82.2994 47.1412 79.3459 48.2206 77.0772 50.3781C74.8235 52.5356 73.6966 55.4203 73.6966 59.0296C73.6966 62.4566 74.7499 65.19 76.8564 67.2297C78.9775 69.2572 81.7542 70.271 85.1865 70.271C88.3684 70.271 91.123 69.6429 93.4504 68.3867V71.5848ZM129.237 78.589H110.456V76.2534H129.237V78.589ZM169.664 71.5848C167.322 72.683 164.405 73.2334 160.915 73.2334C156.406 73.2334 152.798 71.9451 150.087 69.3684C147.376 66.7917 146.021 63.4115 146.021 59.2264C146.021 54.7266 147.546 51.0906 150.595 48.3184C153.644 45.5462 157.512 44.1595 162.195 44.1595C165.2 44.1595 167.69 44.5454 169.664 45.3172V48.8286C167.395 47.7037 164.891 47.1412 162.152 47.1412C158.513 47.1412 155.56 48.2206 153.291 50.3781C151.037 52.5356 149.91 55.4203 149.91 59.0296C149.91 62.4566 150.963 65.19 153.069 67.2297C155.192 69.2572 157.967 70.271 161.4 70.271C164.582 70.271 167.336 69.6429 169.664 68.3867V71.5848ZM215.349 72.762H211.24L207.881 64.8753H194.447L191.287 72.762H187.155L199.309 44.6303H203.152L215.349 72.762ZM206.667 61.9129L201.695 49.9268C201.532 49.5344 201.37 48.9076 201.208 48.0438H201.12C200.972 48.842 200.803 49.4688 200.612 49.9268L195.684 61.9129H206.667ZM257.455 72.762H253.037L247.733 64.8753C247.248 64.1427 246.775 63.5227 246.32 63.0124C245.863 62.4888 245.391 62.0642 244.905 61.7375C244.434 61.4094 243.919 61.175 243.359 61.0304C242.813 60.8737 242.194 60.7947 241.502 60.7947H238.454V72.762H234.741V44.6303H244.198C245.582 44.6303 246.857 44.7868 248.021 45.1016C249.2 45.4015 250.216 45.8663 251.07 46.4944C251.939 47.1211 252.616 47.9059 253.103 48.8487C253.589 49.7768 253.832 50.8683 253.832 52.1245C253.832 53.1048 253.663 54.0074 253.324 54.8311C252.999 55.6426 252.529 56.3685 251.91 57.0086C251.305 57.6501 250.569 58.1992 249.7 58.6572C248.845 59.1019 247.881 59.4487 246.806 59.6965V59.7755C247.337 59.9844 247.792 60.2268 248.175 60.5014C248.574 60.7625 248.949 61.0759 249.302 61.4428C249.657 61.8084 250.002 62.2276 250.341 62.6977C250.694 63.1557 251.085 63.6927 251.512 64.3074L257.455 72.762ZM238.454 47.6126V57.8135H243.492C244.419 57.8135 245.273 57.689 246.054 57.4412C246.849 57.1921 247.534 56.8386 248.109 56.3819C248.684 55.9105 249.133 55.3413 249.457 54.6744C249.782 53.994 249.943 53.236 249.943 52.399C249.943 50.8951 249.391 49.7246 248.285 48.8876C247.196 48.0371 245.612 47.6126 243.535 47.6126H238.454ZM299.563 70.8389C296.38 72.4352 292.844 73.2334 288.955 73.2334C284.433 73.2334 280.774 71.9384 277.974 69.3483C275.19 66.7596 273.797 63.3325 273.797 59.0684C273.797 54.7132 275.345 51.1428 278.439 48.3572C281.546 45.5596 285.48 44.1595 290.238 44.1595C293.684 44.1595 296.579 44.6569 298.922 45.6506V49.2987C296.359 47.8604 293.324 47.1412 289.818 47.1412C286.267 47.1412 283.358 48.2273 281.089 50.3982C278.822 52.5691 277.688 55.3801 277.688 58.834C277.688 62.391 278.74 65.19 280.846 67.2297C282.953 69.2572 285.81 70.271 289.42 70.271C291.895 70.271 294.037 69.8318 295.85 68.9559V61.0705H288.912V58.0881H299.563V70.8389ZM334.421 73.2334C329.927 73.2334 326.327 71.9183 323.616 69.2894C320.92 66.6605 319.572 63.2414 319.572 59.0296C319.572 54.5043 320.949 50.8951 323.703 48.2005C326.459 45.506 330.208 44.1595 334.952 44.1595C339.326 44.1595 342.847 45.4672 345.512 48.0827C348.194 50.6982 349.534 54.1186 349.534 58.3425C349.534 62.9334 348.164 66.5627 345.425 69.2305C342.684 71.8982 339.017 73.2334 334.421 73.2334ZM334.686 47.1412C331.357 47.1412 328.654 48.2072 326.577 50.3393C324.5 52.4713 323.461 55.269 323.461 58.7349C323.461 62.2008 324.47 64.9931 326.488 67.1118C328.521 69.2184 331.166 70.271 334.421 70.271C337.898 70.271 340.637 69.2639 342.64 67.2497C344.643 65.2355 345.645 62.4165 345.645 58.7938C345.645 55.0802 344.674 52.2089 342.729 50.1826C340.785 48.155 338.103 47.1412 334.686 47.1412Z" fill="#262626"/>
<path d="M31.8182 87.536H27.2838V95.3708H25.4478V86.2948H31.8182V87.536ZM43.7874 94.0593H43.7425V99.5457H41.9065V86.2948H43.7425V87.8899H43.7874C44.6905 86.6851 46.0117 86.0816 47.7507 86.0816C49.2286 86.0816 50.3817 86.49 51.2102 87.3057C52.0387 88.1146 52.453 89.2014 52.453 90.5674C52.453 92.0853 51.9864 93.3026 51.0535 94.2181C50.1204 95.128 48.8441 95.5841 47.2245 95.5841C45.7392 95.5841 44.5935 95.0758 43.7874 94.0593ZM43.7425 90.3983V91.6655C43.7425 92.4166 44.0486 93.0542 44.6607 93.5806C45.2801 94.1002 46.0638 94.3599 47.0118 94.3599C48.1239 94.3599 48.9934 94.023 49.6204 93.3503C50.2548 92.6764 50.5721 91.7393 50.5721 90.5401C50.5721 89.5304 50.2772 88.7385 49.6876 88.1645C49.0979 87.5916 48.2993 87.3057 47.2917 87.3057C46.2243 87.3057 45.3659 87.6006 44.7166 88.1917C44.0673 88.7771 43.7425 89.5123 43.7425 90.3983ZM72.192 86.2948L66.9188 96.8241C65.9784 98.7039 64.6573 99.6433 62.9555 99.6433C62.4779 99.6433 62.0785 99.6047 61.7576 99.5276V98.2252C62.1531 98.3307 62.5151 98.384 62.8436 98.384C63.7691 98.384 64.4632 97.9472 64.926 97.0725L65.844 95.3526L61.3657 86.2948H63.4033L66.5046 93.2788C66.5419 93.3673 66.6203 93.5987 66.7397 93.9708H66.8069C66.8441 93.829 66.9188 93.6044 67.0309 93.2969L70.2888 86.2948H72.192ZM80.8922 95.1133V93.6872C81.8923 94.1297 83.0604 94.352 84.3964 94.352C86.4191 94.352 87.4305 93.8438 87.4305 92.8273C87.4305 91.8221 86.3221 91.3206 84.1053 91.3206H82.9746V90.0886H84.0494C85.9975 90.0886 86.9714 89.6098 86.9714 88.6523C86.9714 88.245 86.7475 87.9194 86.2997 87.6778C85.8519 87.435 85.2398 87.3136 84.4635 87.3136C83.3515 87.3136 82.2357 87.536 81.116 87.9784V86.6227C82.3849 86.2563 83.5492 86.0736 84.6091 86.0736C87.4006 86.0736 88.7964 86.8859 88.7964 88.5105C88.7964 89.0369 88.5873 89.4919 88.1694 89.8753C87.7588 90.2542 87.1805 90.505 86.434 90.6286V90.6728C87.2849 90.7262 87.9679 90.9542 88.4828 91.3558C88.9979 91.7574 89.2554 92.2657 89.2554 92.8806C89.2554 93.7076 88.8336 94.3668 87.9903 94.8569C87.1468 95.347 85.9861 95.592 84.5084 95.592C82.9334 95.592 81.7281 95.4332 80.8922 95.1133ZM104.561 95.5841C102.867 95.5841 101.512 95.1609 100.497 94.3157C99.4892 93.4648 98.9855 92.3394 98.9855 90.9395C98.9855 89.4147 99.5117 88.2246 100.564 87.3669C101.616 86.5104 103.038 86.0816 104.83 86.0816C106.539 86.0816 107.871 86.4991 108.827 87.3318C109.789 88.1645 110.271 89.3205 110.271 90.7976C110.271 92.2453 109.752 93.4058 108.715 94.2805C107.685 95.1496 106.3 95.5841 104.561 95.5841ZM104.695 87.3057C103.516 87.3057 102.583 87.6245 101.896 88.262C101.21 88.8951 100.866 89.7687 100.866 90.8861C100.866 91.9616 101.213 92.8091 101.907 93.4297C102.602 94.0502 103.531 94.3599 104.695 94.3599C105.882 94.3599 106.793 94.0559 107.427 93.4478C108.069 92.8386 108.39 91.973 108.39 90.851C108.39 89.7165 108.069 88.8418 107.427 88.2269C106.793 87.612 105.882 87.3057 104.695 87.3057ZM130.402 95.3708H128.566V87.536H122.721V95.3708H120.885V86.2948H130.402V95.3708ZM151.014 91.1959H142.92C142.949 92.2067 143.293 92.9861 143.95 93.5363C144.607 94.0854 145.51 94.3599 146.659 94.3599C147.951 94.3599 149.137 94.023 150.219 93.3503V94.7151C149.212 95.2936 147.879 95.5841 146.222 95.5841C144.603 95.5841 143.33 95.1734 142.405 94.352C141.479 93.5238 141.016 92.3633 141.016 90.868C141.016 89.4555 141.52 88.3063 142.528 87.4203C143.543 86.5286 144.801 86.0816 146.301 86.0816C147.802 86.0816 148.962 86.4662 149.782 87.2342C150.603 88.0023 151.014 89.0687 151.014 90.4335V91.1959ZM149.133 89.9638C149.126 89.1254 148.868 88.4719 148.36 88.0057C147.86 87.5382 147.162 87.3057 146.267 87.3057C145.401 87.3057 144.666 87.5507 144.062 88.0408C143.457 88.5309 143.084 89.1719 142.942 89.9638H149.133ZM163.365 94.0593H163.319V99.5457H161.483V86.2948H163.319V87.8899H163.365C164.267 86.6851 165.589 86.0816 167.327 86.0816C168.806 86.0816 169.958 86.49 170.786 87.3057C171.615 88.1146 172.03 89.2014 172.03 90.5674C172.03 92.0853 171.563 93.3026 170.63 94.2181C169.697 95.128 168.42 95.5841 166.801 95.5841C165.316 95.5841 164.17 95.0758 163.365 94.0593ZM163.319 90.3983V91.6655C163.319 92.4166 163.625 93.0542 164.237 93.5806C164.856 94.1002 165.64 94.3599 166.589 94.3599C167.701 94.3599 168.57 94.023 169.197 93.3503C169.832 92.6764 170.149 91.7393 170.149 90.5401C170.149 89.5304 169.854 88.7385 169.265 88.1645C168.674 87.5916 167.876 87.3057 166.868 87.3057C165.801 87.3057 164.942 87.6006 164.293 88.1917C163.644 88.7771 163.319 89.5123 163.319 90.3983ZM191.858 91.1959H183.764C183.793 92.2067 184.137 92.9861 184.793 93.5363C185.451 94.0854 186.354 94.3599 187.503 94.3599C188.794 94.3599 189.981 94.023 191.063 93.3503V94.7151C190.055 95.2936 188.724 95.5841 187.066 95.5841C185.447 95.5841 184.174 95.1734 183.248 94.352C182.323 93.5238 181.861 92.3633 181.861 90.868C181.861 89.4555 182.364 88.3063 183.372 87.4203C184.388 86.5286 185.644 86.0816 187.145 86.0816C188.645 86.0816 189.806 86.4662 190.627 87.2342C191.448 88.0023 191.858 89.0687 191.858 90.4335V91.1959ZM189.978 89.9638C189.969 89.1254 189.713 88.4719 189.206 88.0057C188.706 87.5382 188.008 87.3057 187.112 87.3057C186.245 87.3057 185.51 87.5507 184.906 88.0408C184.302 88.5309 183.928 89.1719 183.786 89.9638H189.978ZM202.327 95.3708V86.2948H207.321C208.447 86.2948 209.336 86.4922 209.985 86.8882C210.641 87.2841 210.971 87.8253 210.971 88.5105C210.971 89.687 210.239 90.4017 208.776 90.6558C210.53 90.8328 211.407 91.5328 211.407 92.7558C211.407 93.4943 211.046 94.1149 210.32 94.6175C209.604 95.1201 208.713 95.3708 207.645 95.3708H202.327ZM204.164 87.536V90.0886H206.917C208.396 90.0886 209.134 89.6337 209.134 88.7238C209.134 87.9319 208.47 87.536 207.142 87.536H204.164ZM204.164 91.3297V94.1297H207.343C208.829 94.1297 209.571 93.6543 209.571 92.7025C209.571 91.7869 208.738 91.3297 207.075 91.3297H204.164ZM226.96 95.5841C225.264 95.5841 223.91 95.1609 222.896 94.3157C221.887 93.4648 221.384 92.3394 221.384 90.9395C221.384 89.4147 221.91 88.2246 222.961 87.3669C224.015 86.5104 225.436 86.0816 227.228 86.0816C228.937 86.0816 230.269 86.4991 231.225 87.3318C232.188 88.1645 232.669 89.3205 232.669 90.7976C232.669 92.2453 232.15 93.4058 231.113 94.2805C230.082 95.1496 228.698 95.5841 226.96 95.5841ZM227.093 87.3057C225.914 87.3057 224.981 87.6245 224.294 88.262C223.608 88.8951 223.264 89.7687 223.264 90.8861C223.264 91.9616 223.612 92.8091 224.306 93.4297C224.999 94.0502 225.929 94.3599 227.093 94.3599C228.28 94.3599 229.191 94.0559 229.826 93.4478C230.466 92.8386 230.787 91.973 230.787 90.851C230.787 89.7165 230.466 88.8418 229.826 88.2269C229.191 87.612 228.28 87.3057 227.093 87.3057ZM242.321 95.1133V93.6872C243.321 94.1297 244.489 94.352 245.825 94.352C247.848 94.352 248.858 93.8438 248.858 92.8273C248.858 91.8221 247.751 91.3206 245.534 91.3206H244.403V90.0886H245.478C247.425 90.0886 248.4 89.6098 248.4 88.6523C248.4 88.245 248.176 87.9194 247.728 87.6778C247.281 87.435 246.669 87.3136 245.892 87.3136C244.78 87.3136 243.664 87.536 242.544 87.9784V86.6227C243.814 86.2563 244.978 86.0736 246.038 86.0736C248.83 86.0736 250.226 86.8859 250.226 88.5105C250.226 89.0369 250.016 89.4919 249.598 89.8753C249.188 90.2542 248.609 90.505 247.862 90.6286V90.6728C248.714 90.7262 249.396 90.9542 249.912 91.3558C250.426 91.7574 250.684 92.2657 250.684 92.8806C250.684 93.7076 250.263 94.3668 249.419 94.8569C248.575 95.347 247.415 95.592 245.936 95.592C244.361 95.592 243.156 95.4332 242.321 95.1133ZM270.714 95.3708H268.139L263.079 91.0098H263.034V95.3708H261.197V86.2948H263.034V90.4516H263.079L267.892 86.2948H270.3L264.982 90.6728L270.714 95.3708ZM289.883 95.3708H288.225V88.1293C288.061 88.3835 287.811 88.7408 287.475 89.2014L282.18 95.3708H280.277V86.2948H281.955V93.4478C282.045 93.2765 282.239 92.9838 282.538 92.5697L287.98 86.2948H289.883V95.3708Z" fill="#262626"/>
<path d="M105.159 33.681C108.26 33.681 110.773 31.1677 110.773 28.0675C110.773 24.9672 108.26 22.454 105.159 22.454C102.059 22.454 99.5459 24.9672 99.5459 28.0675C99.5459 31.1677 102.059 33.681 105.159 33.681Z" fill="#F9BE50"/>
<path d="M67.7361 33.681C70.8363 33.681 73.3496 31.1677 73.3496 28.0675C73.3496 24.9672 70.8363 22.454 67.7361 22.454C64.6358 22.454 62.1226 24.9672 62.1226 28.0675C62.1226 31.1677 64.6358 33.681 67.7361 33.681Z" fill="#A8A8A1"/>
<path d="M30.3127 33.681C33.413 33.681 35.9262 31.1677 35.9262 28.0675C35.9262 24.9672 33.413 22.454 30.3127 22.454C27.2125 22.454 24.6992 24.9672 24.6992 28.0675C24.6992 31.1677 27.2125 33.681 30.3127 33.681Z" fill="#F65F5C"/>
</svg>
