<svg id="RIGHT_FEET" data-name="RIGHT FEET" xmlns="http://www.w3.org/2000/svg" viewBox="0 0 1600 1400"><defs><style>.cls-1{fill:#fff;}.cls-2{fill:#262424;}.cls-3{fill:#de9244;}.cls-4{fill:#88c0c2;}</style></defs><title>Shipping</title><polygon class="cls-1" points="1167.82 1146.36 1144.53 1162.07 1125.27 1136.14 1104.62 1108.28 1137.8 1093.92 1143.75 1104.33 1167.82 1146.36"/><path class="cls-2" d="M1144.53,1164.09a2,2,0,0,1-1.62-.81L1103,1109.48a2,2,0,0,1,.82-3.05l33.19-14.36a2,2,0,0,1,2.55.85l30,52.44a2,2,0,0,1-.62,2.68l-23.29,15.71A2,2,0,0,1,1144.53,1164.09Zm-36.78-55,37.25,50.2,20.14-13.58-28.19-49.25Z"/><path class="cls-2" d="M1143.75,1104.33c-6.43,11-13.42,22.94-18.48,31.81l-20.65-27.86,33.19-14.36Z"/><path class="cls-3" d="M1223.4,1231.08L1133.31,1288l-6.54-6.1a15.76,15.76,0,0,1-4.81-9.22,15.14,15.14,0,0,1,.27-6.1c4.92-19.77,15.17-69.12,7.5-111.69l39-23.75s30.47,37.36,49,84C1219.77,1220.35,1221.68,1225.67,1223.4,1231.08Z"/><path class="cls-1" d="M1223.4,1231.08L1133.31,1288l-6.54-6.1a15.76,15.76,0,0,1-4.81-9.22l95.74-57.53C1219.77,1220.35,1221.68,1225.67,1223.4,1231.08Z"/><path class="cls-2" d="M1133.31,1290a2,2,0,0,1-1.38-.54l-6.53-6.1A17.84,17.84,0,0,1,1120,1273a2,2,0,0,1,1-2l95.74-57.53a2,2,0,0,1,2.91,1c2.09,5.24,4,10.64,5.75,16.05a2,2,0,0,1-.85,2.32l-90.09,56.93A2,2,0,0,1,1133.31,1290Zm-9.1-16.34a13.82,13.82,0,0,0,3.94,6.75l5.39,5,87.45-55.27c-1.33-4.07-2.77-8.12-4.31-12.09Z"/><path class="cls-4" d="M926.24,623.75s9.86,226.8,35.86,322.72l138.95,182s27.79-12.55,47.51-25.1c0,0-45.72-110.26-54.68-125.5s-54.68-61-54.68-61,27.32-207.09,28.69-276.1C1069.67,550.24,928,527.83,926.24,623.75Z"/><path class="cls-2" d="M1118.08,1098.19a2,2,0,0,1-1.7-.92L1007,927.84a2,2,0,0,1,3.39-2.19l109.37,169.43A2,2,0,0,1,1118.08,1098.19Z"/><path class="cls-2" d="M1097.12,1117.24a2,2,0,0,1-1-3.77l40-22.52a2,2,0,1,1,2,3.51l-40,22.52A2,2,0,0,1,1097.12,1117.24Z"/><polygon class="cls-1" points="966.14 1136.14 956.27 1156.66 939.98 1190.6 913.84 1180.3 932.23 1126.6 935.54 1116.94 966.14 1136.14"/><path class="cls-2" d="M940,1192.62a2,2,0,0,1-.74-0.14l-26.14-10.3a2,2,0,0,1-1.17-2.53l21.7-63.36a2,2,0,0,1,3-1.06l30.61,19.2A2,2,0,0,1,968,1137l-26.17,54.46A2,2,0,0,1,940,1192.62Zm-23.61-13.49L939,1188l24.57-51.14L936.62,1120Z"/><path class="cls-2" d="M935.54,1116.94l30.6,19.2-9.87,20.52c-7.53-9.36-17.67-22-24-30.07Z"/><path class="cls-3" d="M901.68,1284.41l-98-41.95,1.32-8.84a15.76,15.76,0,0,1,4.87-9.19,15.14,15.14,0,0,1,5.18-3.24c19.07-7.15,65.54-26.68,96.26-57.13L953,1182.72s-13.5,46.28-41.45,88C908.47,1275.33,905.16,1279.92,901.68,1284.41Z"/><path class="cls-1" d="M901.68,1284.41l-98-41.95,1.32-8.84a15.76,15.76,0,0,1,4.87-9.19l101.66,46.26C908.47,1275.33,905.16,1279.92,901.68,1284.41Z"/><path class="cls-2" d="M901.68,1286.42a2,2,0,0,1-.79-0.16l-98-41.95a2,2,0,0,1-1.2-2.15l1.32-8.85a17.88,17.88,0,0,1,5.49-10.37,2,2,0,0,1,2.21-.36l101.66,46.26a2,2,0,0,1,.84,3c-3.13,4.7-6.49,9.35-10,13.84A2,2,0,0,1,901.68,1286.42Zm-95.75-45.21,95.1,40.72c2.6-3.4,5.12-6.88,7.52-10.41l-98.21-44.69a13.85,13.85,0,0,0-3.32,7.08Z"/><path class="cls-4" d="M1017.49,636.84l3.76,38.9S972,1001.15,919.06,1122.17c0,0,27.79,16.14,53.79,18.83,0,0,55.58-106.68,63.65-130.88s9.86-87.85,9.86-87.85S1161.1,736.7,1167.38,682s-17-135.36-69.92-134.47q-4.31.07-8.43,0.51C1044.94,552.7,1013.22,592.72,1017.49,636.84Z"/><path class="cls-2" d="M1019.93,641.05l3.33,34.5a1.46,1.46,0,0,1,0,.48c-0.22,1.43-21.95,144-51.55,274a2,2,0,0,1-2.39,1.53,2,2,0,0,1-1.53-2.42c29-127.31,50.4-266.73,51.45-273.48L1015.49,637c0-.19,0-0.38-0.05-0.56A48.31,48.31,0,0,0,1019.93,641.05Z"/><path class="cls-2" d="M1045.6,937.93a2,2,0,0,1,2,2.13c-1.14,20.76-3.73,54.3-9.22,70.7-1,3-2.72,7.26-5.24,13a2,2,0,0,1-1.83,1.21,2.06,2.06,0,0,1-.81-0.16,2,2,0,0,1-1-2.66c2.45-5.57,4.17-9.82,5.11-12.69,5.27-15.78,7.83-49,9-69.63a2,2,0,0,1,2-1.9h0Z"/><path class="cls-2" d="M1021.26,677.76a2,2,0,0,1-.47-0.06c-18.29-4.34-18.77-7.26-19-8.35-0.45-2.72-4.76-43.22-4.95-44.94a2,2,0,0,1,4-.43c1.49,14,4.35,40.65,4.87,44.39,1.49,1.33,9.3,3.83,16,5.41A2,2,0,0,1,1021.26,677.76Zm-15.62-9.52"/><path class="cls-2" d="M961.64,1115.89a2,2,0,0,1-1.75-3c16.87-29.45,49.35-87.48,51.56-96.3,4.35-17.37,6-80.28,6-80.91a2,2,0,0,1,.17-0.75c37.76-87.51,109.21-253.47,112.11-261.67-0.19-4.35-3.43-52.73-4.69-71.54a2,2,0,1,1,4-.27c0.48,7.16,4.71,70,4.71,72.07,0,1.61-37.78,90-112.29,262.65-0.15,5.86-1.78,64.14-6.1,81.4-2.9,11.57-50,93.83-52,97.33A2,2,0,0,1,961.64,1115.89Zm170.08-442.28h0Z"/><path class="cls-2" d="M973.41,1127.66l-0.33,0c-20.55-3.37-42-13.52-42.9-14a2,2,0,0,1,1.74-3.64c0.22,0.1,21.84,10.34,41.81,13.61A2,2,0,0,1,973.41,1127.66Z"/><path class="cls-2" d="M1131,675.53A24.16,24.16,0,0,1,1113.1,668c-16.24-16.69-14.39-55.25-14.3-56.88a2,2,0,0,1,4,.21c0,0.38-1.85,38.44,13.17,53.86a20.14,20.14,0,0,0,15.69,6.32h0.05a2,2,0,0,1,.05,4H1131Z"/><path class="cls-2" d="M594.83,245.15a2,2,0,0,1-.31-4c3.47-.54,5.38-0.78,5.38-0.78a2,2,0,0,1,.5,4s-1.88.24-5.25,0.76Z"/><path class="cls-2" d="M1207,627.41a2,2,0,0,1-.33-4c3.51-.58,7-1.25,10.51-2a2,2,0,0,1,.84,3.94c-3.53.75-7.13,1.43-10.69,2Zm21.09-4.51a2,2,0,0,1-.51-4c3.5-.92,6.95-1.93,10.24-3a2,2,0,1,1,1.24,3.84c-3.36,1.09-6.88,2.12-10.45,3.06A2,2,0,0,1,1228.06,622.9Zm20.5-6.66a2,2,0,0,1-.74-3.89c3.39-1.34,6.66-2.78,9.73-4.27a2,2,0,0,1,1.76,3.63c-3.15,1.54-6.52,3-10,4.39A2,2,0,0,1,1248.56,616.23Zm19.33-9.49a2,2,0,0,1-1.05-3.74,89,89,0,0,0,8.65-6,2,2,0,0,1,2.49,3.17,92.94,92.94,0,0,1-9,6.26A2,2,0,0,1,1267.9,606.74Zm16.8-13.37a2,2,0,0,1-1.47-3.4,56.85,56.85,0,0,0,6.39-8.17A2,2,0,1,1,1293,584a60.76,60.76,0,0,1-6.85,8.75A2,2,0,0,1,1284.69,593.37Zm11.44-18a2,2,0,0,1-1.89-2.72,48.33,48.33,0,0,0,2.56-10,2,2,0,0,1,4,.58A52.47,52.47,0,0,1,1298,574,2,2,0,0,1,1296.13,575.32Zm3.16-21.11a2,2,0,0,1-2-1.92,64.23,64.23,0,0,0-.83-7.6q-0.23-1.39-.53-2.74a2,2,0,1,1,3.94-.86q0.32,1.44.56,2.93a68.31,68.31,0,0,1,.88,8.07,2,2,0,0,1-1.92,2.11h-0.1Zm-4.67-20.89a2,2,0,0,1-1.85-1.21,46.47,46.47,0,0,0-5.14-8.9,2,2,0,1,1,3.25-2.4,50.36,50.36,0,0,1,5.59,9.68A2,2,0,0,1,1294.62,533.32ZM1282,516.15a2,2,0,0,1-1.33-.5,58.6,58.6,0,0,0-8.39-6.11,2,2,0,0,1,2.09-3.45,62.44,62.44,0,0,1,9,6.54A2,2,0,0,1,1282,516.15Zm-605.84-7.22h-3.08a2,2,0,0,1,0-4h10.76a2,2,0,0,1,0,4h-7.69Zm-13.84,0h0l-10.78-.09a2,2,0,1,1,0-4l10.76,0.09A2,2,0,0,1,662.31,508.89Zm32.29,0a2,2,0,0,1,0-4l10.76-.08a2.14,2.14,0,0,1,2,2,2,2,0,0,1-2,2l-10.77.08h0Zm21.54-.19a2,2,0,0,1,0-4l10.77-.13a1.92,1.92,0,0,1,2,2,2,2,0,0,1-2,2l-10.77.13h0Zm-75.37,0h0q-5.42-.09-10.78-0.21a2,2,0,0,1-2-2.06,2.1,2.1,0,0,1,2.06-2q5.35,0.12,10.76.21A2,2,0,0,1,640.76,508.66Zm96.91-.26a2,2,0,0,1,0-4l10.52-.16,0.28,2,0,2-10.77.16h0Zm-118.46-.23h-0.06q-5.43-.16-10.78-0.36a2,2,0,0,1,.15-4q5.34,0.2,10.75.36A2,2,0,0,1,619.22,508.17Zm140-.11a2,2,0,0,1,0-4l10.77-.18h0a2,2,0,0,1,0,4l-10.77.18h0Zm21.54-.36a2,2,0,0,1,0-4l10.77-.17a2,2,0,0,1,2,2,2,2,0,0,1-2,2l-10.77.17h0Zm21.54-.34a2,2,0,0,1,0-4l10.78-.15a2,2,0,0,1,2,2,2,2,0,0,1-2,2l-10.77.15h0Zm-204.6,0h-0.09q-5.43-.25-10.78-0.55a2,2,0,1,1,.23-4q5.33,0.3,10.74.55A2,2,0,0,1,597.68,507.35Zm226.15-.28a2,2,0,0,1,0-4l10.78-.12a2,2,0,0,1,2,2,2,2,0,0,1-2,2l-10.77.12h0Zm21.55-.2a2,2,0,0,1,0-4l10.78-.06h0a2,2,0,0,1,0,4l-10.77.06h0Zm22.19-.08h-0.64a2,2,0,1,1,0-4h0.64q5.08,0,10.14,0h0a2,2,0,0,1,0,4Q872.66,506.78,867.57,506.78Zm20.95-.15a2,2,0,0,1,0-4q5.41-.07,10.78-0.19h0a2,2,0,0,1,0,4q-5.39.11-10.81,0.19h0Zm21.57-.44a2,2,0,0,1-.05-4q5.39-.14,10.75-0.32a1.93,1.93,0,0,1,2.08,2,2,2,0,0,1-2,2.08q-5.38.17-10.78,0.32h-0.05Zm-333.92-.06H576q-5.44-.37-10.77-0.79a2,2,0,1,1,.32-4q5.31,0.42,10.72.79A2,2,0,0,1,576.17,506.13Zm355.45-.64a2,2,0,0,1-.07-4l10.75-.44a2.09,2.09,0,0,1,2.1,1.93,2,2,0,0,1-1.93,2.1l-10.78.44h-0.08Zm332.11-.56a2,2,0,0,1-.8-0.16,102.63,102.63,0,0,0-9.9-3.64,2,2,0,1,1,1.2-3.85,106.79,106.79,0,0,1,10.3,3.79A2,2,0,0,1,1263.72,504.93Zm-310.59-.37a2,2,0,0,1-.09-4l10.75-.54a2,2,0,0,1,2.12,1.91A2,2,0,0,1,964,504l-10.77.54h-0.1Zm-398.45-.15H554.5q-5.43-.51-10.75-1.09a2,2,0,1,1,.44-4q5.28,0.58,10.69,1.09A2,2,0,0,1,554.69,504.41Zm420-1a2,2,0,0,1-.11-4l10.75-.62a2.07,2.07,0,0,1,2.13,1.89,2,2,0,0,1-1.9,2.13l-10.76.62h-0.12Zm21.51-1.28a2,2,0,0,1-.12-4l10.75-.69a2,2,0,0,1,2.14,1.88,2,2,0,0,1-1.88,2.14l-10.76.69h-0.13Zm-462.89-.1L533,502q-5.43-.69-10.71-1.47a2,2,0,0,1,.59-4q5.24,0.77,10.64,1.46A2,2,0,0,1,533.27,502.05Zm484.39-1.29a2,2,0,0,1-.13-4l10.75-.73a2,2,0,1,1,.27,4l-10.75.73h-0.14Zm21.49-1.47a2,2,0,0,1-.14-4l10.75-.75a2,2,0,1,1,.28,4l-10.75.75h-0.14ZM512,498.9a2,2,0,0,1-.34,0q-5.41-.92-10.65-2a2,2,0,0,1,.78-4q5.18,1,10.54,1.94A2,2,0,0,1,512,498.9Zm731.28-.48a2,2,0,0,1-.45-0.05c-3.28-.75-6.8-1.44-10.44-2.05a2,2,0,1,1,.66-4c3.73,0.62,7.32,1.33,10.69,2.1A2,2,0,0,1,1243.23,498.42Zm-182.58-.63a2,2,0,0,1-.14-4l10.75-.74a2,2,0,1,1,.27,4l-10.75.74h-0.14Zm21.5-1.47a2,2,0,0,1-.13-4l10.76-.7a2,2,0,0,1,.26,4l-10.75.7h-0.14Zm21.5-1.36a2,2,0,0,1-.12-4l10.76-.62a2,2,0,0,1,.23,4l-10.75.62h-0.12Zm118.35-.14h-0.24c-3.4-.41-7-0.76-10.64-1.06a2,2,0,0,1,.33-4c3.71,0.3,7.34.67,10.79,1.08A2,2,0,0,1,1222,494.83Zm-731.18-.12a2,2,0,0,1-.45-0.05c-3.62-.83-7.16-1.7-10.53-2.59a2,2,0,0,1,1-3.9c3.32,0.88,6.82,1.74,10.39,2.56A2,2,0,0,1,490.82,494.72Zm634.34-.93a2,2,0,0,1-.1-4q5.45-.27,10.78-0.49a2,2,0,0,1,.17,4q-5.31.22-10.74,0.49h-0.1Zm75.38-.74h-0.11q-5.24-.27-10.71-0.42a2,2,0,0,1-2-2.07,2,2,0,0,1,2.07-2q5.52,0.15,10.81.43A2,2,0,0,1,1200.54,493Zm-53.85-.16a2,2,0,0,1-.06-4q5.47-.18,10.79-0.29h0a2,2,0,0,1,0,4q-5.3.11-10.75,0.29h-0.07Zm21.54-.46a2,2,0,0,1,0-4q5.49,0,10.8,0a2,2,0,0,1,0,4h0q-5.28,0-10.74,0h0ZM470,489.19a2,2,0,0,1-.59-0.09c-3.54-1.09-7-2.25-10.31-3.44a2,2,0,1,1,1.37-3.8c3.24,1.17,6.65,2.3,10.13,3.37A2,2,0,0,1,470,489.19Zm-20.24-7.33a2,2,0,0,1-.79-0.16c-3.43-1.46-6.76-3-9.89-4.58a2,2,0,1,1,1.82-3.6c3.05,1.54,6.3,3,9.64,4.47A2,2,0,0,1,449.75,481.86Zm-19.17-9.75a2,2,0,0,1-1.05-.3c-3.19-1.95-6.24-4-9.06-6.13a2,2,0,0,1,2.42-3.23c2.72,2,5.66,4,8.75,5.91A2,2,0,0,1,430.59,472.1Zm-17.12-12.94a2,2,0,0,1-1.39-.55,84.35,84.35,0,0,1-7.49-8,2,2,0,0,1,3.13-2.54,80.18,80.18,0,0,0,7.13,7.66A2,2,0,0,1,413.46,459.17ZM400,442.53a2,2,0,0,1-1.73-1,73.71,73.71,0,0,1-4.93-9.85,2,2,0,0,1,3.73-1.53,69.9,69.9,0,0,0,4.66,9.31A2,2,0,0,1,400,442.53Zm-8.13-19.77a2,2,0,0,1-2-1.53A83.12,83.12,0,0,1,388,410.42a2,2,0,1,1,4-.45,79.34,79.34,0,0,0,1.84,10.29A2,2,0,0,1,391.87,422.76Zm-2.45-21.27h0a2,2,0,0,1-2-2c0-3.68.19-7.36,0.53-10.93a2,2,0,1,1,4,.38c-0.33,3.45-.5,7-0.51,10.56A2,2,0,0,1,389.42,401.5Zm2-21.37a2,2,0,0,1-2-2.4c0.69-3.57,1.56-7.14,2.59-10.63a2,2,0,0,1,3.87,1.15c-1,3.35-1.84,6.8-2.5,10.24A2,2,0,0,1,391.46,380.12Zm6.11-20.56a2,2,0,0,1-1.87-2.78c1.37-3.34,2.93-6.68,4.63-9.91a2,2,0,0,1,3.57,1.88c-1.65,3.12-3.15,6.34-4.47,9.56A2,2,0,0,1,397.57,359.56Zm10-19a2,2,0,0,1-1.69-3.12c2-3,4.09-6,6.35-8.89a2,2,0,1,1,3.18,2.48c-2.19,2.8-4.26,5.7-6.15,8.61A2,2,0,0,1,407.57,340.56Zm13.21-17a2,2,0,0,1-1.49-3.38c2.41-2.63,5-5.25,7.67-7.79a2,2,0,0,1,2.77,2.93c-2.61,2.47-5.12,5-7.46,7.58A2,2,0,0,1,420.78,323.59Zm15.62-14.83a2,2,0,0,1-1.29-3.57c2.75-2.28,5.64-4.55,8.59-6.73a2,2,0,0,1,2.4,3.24c-2.89,2.14-5.71,4.35-8.4,6.59A2,2,0,0,1,436.4,308.76Zm17.34-12.84a2,2,0,0,1-1.11-3.7c2.95-2,6-3.9,9.21-5.79a2,2,0,1,1,2.07,3.46c-3.11,1.86-6.16,3.77-9.05,5.69A2,2,0,0,1,453.74,295.92Zm18.5-11.06a2,2,0,0,1-1-3.79c3.11-1.68,6.35-3.35,9.64-5a2,2,0,1,1,1.78,3.62c-3.24,1.59-6.44,3.24-9.5,4.9A2,2,0,0,1,472.25,284.86Zm19.33-9.52a2,2,0,0,1-.83-3.86q5-2.24,10-4.28a2,2,0,0,1,1.53,3.73q-4.92,2-9.85,4.23A2,2,0,0,1,491.57,275.34Zm19.95-8.2a2,2,0,0,1-.71-3.91q5.14-1.94,10.2-3.67a2,2,0,1,1,1.32,3.81q-5,1.72-10.1,3.64A2,2,0,0,1,511.52,267.14Zm20.39-7a2,2,0,0,1-.61-3.94q5.29-1.67,10.38-3.14a2,2,0,1,1,1.12,3.88q-5,1.45-10.28,3.11A2,2,0,0,1,531.91,260.11Zm20.73-6a2,2,0,0,1-.51-4c3.65-1,7.16-1.84,10.52-2.63a2,2,0,0,1,.93,3.92c-3.32.79-6.81,1.66-10.43,2.61A2,2,0,0,1,552.64,254.12Zm21-5a2,2,0,0,1-.42-4c3.9-.83,7.47-1.54,10.63-2.14a2,2,0,1,1,.75,4c-3.14.59-6.67,1.29-10.54,2.12A2,2,0,0,1,573.64,249.12Z"/><path class="cls-2" d="M1190.63,629.5a2,2,0,0,1-.14-4s1.95-.14,5.25-0.52a2,2,0,1,1,.46,4c-3.44.4-5.43,0.54-5.43,0.54h-0.14Z"/><path class="cls-4" d="M655.57,128.17a56.27,56.27,0,0,0-112.55,0s-0.86,74.06,56.26,98.18C656.41,202.23,655.57,128.17,655.57,128.17Zm-56.29,30.9a30.88,30.88,0,1,1,30.9-30.9A30.88,30.88,0,0,1,599.29,159.07Z"/><circle class="cls-4" cx="599.3" cy="128.18" r="16.08"/><path class="cls-3" d="M931.39,272.45c-21,9.94-65.22,192.18-65.22,192.18s-59.95,48.52-67.12,64.21,16.7,56,44.93,48.52,85.83-68.8,94.35-84.94,37.08-143,35.12-172.57S957.61,260,931.39,272.45Z"/><path class="cls-2" d="M912.9,492a2,2,0,0,1-1.64-.84c-12.74-17.8-38.78-21.66-39-21.7a2,2,0,0,1,.56-4c1.14,0.16,28,4.12,41.76,23.35A2,2,0,0,1,912.9,492Z"/><path class="cls-1" d="M804.43,536.57S790.2,550,785.94,553.38s-3.36,22,8.52,30.25,26.67,5.83,28.69,4.26S838,574,840.29,570.63,836.93,532.08,804.43,536.57Z"/><path class="cls-2" d="M814.06,591.53a36.56,36.56,0,0,1-20.76-6.24c-8.29-5.78-11.48-15.78-11.69-23.21-0.14-4.87,1-8.62,3.08-10.28,4.14-3.27,18.21-16.56,18.36-16.69a2,2,0,0,1,1.11-.53c17.91-2.47,27.58,6.46,32.56,14.39,5.65,9,7.09,20,5.26,22.79-2.45,3.67-15.52,16.12-17.58,17.73C823.05,590.52,819.12,591.53,814.06,591.53Zm-8.72-53c-2.55,2.41-14.26,13.41-18.15,16.48-0.69.54-1.67,2.86-1.55,7,0.18,6.15,2.9,15.09,10,20,11.14,7.78,24.89,5.24,26.32,4.3,2-1.57,14.67-13.75,16.68-16.77,0.55-1.41-.29-12.23-7.17-21.07C825.22,540.47,816.45,537.11,805.34,538.48Z"/><path class="cls-1" d="M784.09,611.08c14,2,28.46-14.57,30.48-26s-12.1-23.76-27.12-22.64S764.82,574.11,759,583.74,766.61,608.62,784.09,611.08Z"/><path class="cls-2" d="M786.35,613.26a18.17,18.17,0,0,1-2.54-.18c-11.5-1.62-22.43-8.85-26.58-17.59-2.19-4.6-2.17-9.14,0-12.79,6.58-10.89,14.78-21.12,30-22.26a30,30,0,0,1,24,9.6c4.3,4.75,6.16,10.22,5.25,15.4C814.49,597.17,800.53,613.26,786.35,613.26Zm-2-4.17c12.67,1.78,26.33-13.69,28.21-24.35,0.69-3.92-.82-8.18-4.27-12a25.86,25.86,0,0,0-20.71-8.28c-14.11,1.05-21.27,11-26.89,20.32-1.9,3.14-1,6.62.16,9C763.82,600,772.43,607.4,784.37,609.09Z"/><path class="cls-3" d="M1030.9,235.14c-36.64,0-99.51,37.31-99.51,37.31l-2,24.09S912.9,342,912.9,359.18s29.25,56.48,29.25,56.48S921.31,564.58,912.9,630.47c0,0,99.17,63.2,276.66,6.05L1126.37,412,1140.49,275S1079.53,235.14,1030.9,235.14Z"/><path class="cls-2" d="M1051.89,641.37c-74,0-128.18-19.63-129-19.93a2,2,0,1,1,1.4-3.78c1.21,0.45,121.86,44.09,248.74,0a2,2,0,0,1,1.32,3.81C1131.4,636.38,1089.13,641.37,1051.89,641.37Z"/><path class="cls-2" d="M931.13,497.07l-0.28,0a2,2,0,0,1-1.72-2.27c5.52-40.07,10.13-73.06,10.9-78.59-4-5.46-29.15-40.45-29.15-57,0-16.82,15-59,16.5-63.07l1.51-18a2,2,0,0,1,2.18-1.84,2,2,0,0,1,1.84,2.18l-1.53,18.28a2,2,0,0,1-.11.52c-0.16.45-16.35,45.36-16.35,62,0,16.28,28.56,54.88,28.85,55.27a2,2,0,0,1,.38,1.48s-5,35.44-11,79.39A2,2,0,0,1,931.13,497.07Z"/><path class="cls-2" d="M1023.84,343.33c-1.14,0-2.5,0-4.14-.16-9.9-.69-10.61-2.46-10.95-3.31-1.09-2.73,2.82-39.9,5.25-61.82a2,2,0,1,1,4,.44c-2.29,20.68-5.68,54-5.49,59.52,2.47,0.95,11.2,1.54,14,1.16,1-5.87,4.15-39.19,6-60.05a2,2,0,0,1,4,.35c-2.4,27.35-5.49,60.34-6.55,62.2C1029.59,342.32,1029,343.33,1023.84,343.33Zm-11.27-4.76h0Zm-0.46-.76"/><path class="cls-1" d="M1033.36,221.69c-20.58,1.35-32.27,15-33.62,26.22s6.72,21.51,14.34,23.76c0,0,7.62-21.29,13.45-21.29S1037.62,275,1037.62,275s27.57,0,35-23.53C1077.68,235.27,1057.34,220.12,1033.36,221.69Z"/><path class="cls-2" d="M1037.62,277a2,2,0,0,1-2-1.67c-2.24-12.94-6.19-23-8.1-23-2.35,0-7.74,9.32-11.55,20a2,2,0,0,1-2.47,1.26c-8.63-2.54-17.23-13.81-15.78-25.93,1.51-12.54,14.46-26.62,35.49-28h0c15.27-1,30,4.52,37.47,14.06,4.41,5.62,5.76,12.14,3.81,18.36C1066.76,276.76,1037.91,277,1037.62,277Zm-10.08-28.69c6.33,0,10.16,16,11.76,24.58,5.91-.42,25.44-3.22,31.36-22,2-6.3-.61-11.45-3.13-14.66-6.59-8.39-20.26-13.44-34-12.53h0c-18.86,1.23-30.43,13.52-31.74,24.45-1.08,9,4.73,17.89,11.15,20.91C1015.43,262.38,1021.48,248.36,1027.53,248.36Zm5.83-26.67h0Z"/><path class="cls-1" d="M1022.51,196.44l-2.59,38.7s0.72,7.06,9.52,10.42a33.77,33.77,0,0,0,24.26-10.42l-2.46-44.72Z"/><path class="cls-2" d="M1030,247.59h-0.62a2,2,0,0,1-.62-0.13c-9.85-3.76-10.77-11.76-10.8-12.1a2.09,2.09,0,0,1,0-.34l2.59-38.7a2,2,0,0,1,1.6-1.84l28.73-6a2,2,0,0,1,2.43,1.86l2.46,44.72a2,2,0,0,1-.54,1.49A35.7,35.7,0,0,1,1030,247.59Zm-0.12-4h0a32.18,32.18,0,0,0,21.8-9.18l-2.28-41.5-24.93,5.23-2.47,37C1022.09,235.95,1023.21,240.88,1029.83,243.55Z"/><path class="cls-2" d="M1074.77,90.61c-12.58,10.56,9.19,36.78,17.5,44.64s10.06,37.48,31.5,40.59-1.07,51.06,57.81,73.64c45.38,17.4,100.12-24.67,81.34-53.4s-73.8-26.94-90.65-53.43c-10.73-16.86-11.59-46-45.22-45.72C1102,97.14,1084.7,82.28,1074.77,90.61Z"/><path class="cls-1" d="M999.35,166.92s-8.93-13.26-18.52-8.75-6.37,36.48,17.25,32.12Z"/><path class="cls-2" d="M993.83,192.71c-8.9,0-15.74-5.19-18.73-14.49-2.63-8.18-1.51-18.87,4.88-21.87,11-5.19,20.65,8.85,21.05,9.45a2,2,0,0,1-3.35,2.25c-0.08-.12-8.09-11.77-16-8.06-3.73,1.76-5,9.85-2.75,17,1.35,4.2,5.87,13.7,18.78,11.32a2,2,0,1,1,.73,4A25.39,25.39,0,0,1,993.83,192.71Z"/><path class="cls-1" d="M1065.85,106.17l5.46-2.59a5.32,5.32,0,0,1,5.38.47,17.9,17.9,0,0,1,5.46,5.9,12.39,12.39,0,0,1,.74,8.37,5.26,5.26,0,0,1-2.37,3.29l-5.87,3.66a5.33,5.33,0,0,1-7.81-2.64l-3.69-9.74A5.33,5.33,0,0,1,1065.85,106.17Z"/><path class="cls-2" d="M1071.83,128.08a7.36,7.36,0,0,1-6.88-4.75l-3.69-9.74a7.39,7.39,0,0,1,3.72-9.25h0l5.46-2.59a7.34,7.34,0,0,1,7.41.65,20,20,0,0,1,6.07,6.6,14.32,14.32,0,0,1,.92,9.75,7.23,7.23,0,0,1-3.28,4.56l-5.87,3.66A7.32,7.32,0,0,1,1071.83,128.08Zm-5.12-20.1a3.34,3.34,0,0,0-1.68,4.17l3.69,9.74a3.32,3.32,0,0,0,4.86,1.64l5.87-3.66a3.23,3.23,0,0,0,1.47-2,10.39,10.39,0,0,0-.56-7,16,16,0,0,0-4.85-5.19,3.32,3.32,0,0,0-3.34-.28Z"/><path class="cls-1" d="M993.34,172.19c1.09,19.78,9.87,42.61,33.8,42,17.59-.47,37-21.65,38.52-48.36s-3.17-49.58-35.31-48a77.66,77.66,0,0,0-10.22,1.35c-18.64,4.12-25.76,5.79-27.14,42.46C992.87,164.86,993.13,168.45,993.34,172.19Z"/><path class="cls-2" d="M1026.16,216.18c-23.88,0-33.66-22.54-34.83-43.88l-0.09-1.48c-0.19-3.27-.38-6.37-0.27-9.27,1.38-36.47,8.45-39.88,28.72-44.36a79.83,79.83,0,0,1,10.55-1.39c12.14-.62,21.48,2.24,27.67,8.47,10.13,10.18,10.53,27.6,9.75,41.64-1.61,29-22.62,49.79-40.48,50.26h-1Zm7.35-96.44q-1.49,0-3.06.08a76.26,76.26,0,0,0-9.88,1.3c-18.12,4-24.23,5.36-25.56,40.57-0.1,2.71.08,5.71,0.27,8.89l0.09,1.49h0c0.53,9.58,4.41,40.68,31.73,40.06,16.07-.43,35.12-20.39,36.56-46.46,1.07-19.34-1.65-31.6-8.59-38.57C1050.15,122.16,1043.08,119.74,1033.51,119.74Z"/><path class="cls-2" d="M1057.2,168.4A19.16,19.16,0,0,1,1045.1,153c-0.35-2.31-.56-5.43-1.24-8.26-13.61,14.25-39.3,22.9-50.5,26.15a8.72,8.72,0,0,1-9.68-3.27c-13.07-19.3,2.51-56.27,27.55-55.56,28.43-19.69,61.64-5.38,66.37,18.64C1082.86,157.32,1065.22,171.74,1057.2,168.4Z"/><path class="cls-1" d="M1057.46,166.92s13-13.41,26.64-9,5.72,36.19-28,32.19Z"/><path class="cls-2" d="M1061.75,192.43a49.91,49.91,0,0,1-5.9-.36,2,2,0,0,1-1.76-2.24,2,2,0,0,1,2.24-1.76c18.78,2.22,29.63-7.29,31.75-17.07,1-4.53-.06-9.74-4.6-11.19-12.33-3.94-24.45,8.4-24.57,8.52a2,2,0,1,1-2.9-2.8c0.56-.58,14-14.25,28.7-9.56,6,1.92,9,8.31,7.31,15.89C1089.76,182.25,1079.43,192.43,1061.75,192.43Z"/><path class="cls-1" d="M1021.89,601.86L926,570.75a17.31,17.31,0,0,0-21.89,11.37l-18.33,59.53H718l15.12-49.12L825,622.32a10.76,10.76,0,1,0,6.64-20.46l-95.87-31.11a17.31,17.31,0,0,0-21.89,11.37L520.4,1210.44a10.76,10.76,0,1,0,20.56,6.33L711.42,663.16H879.18L710.67,1210.44a10.76,10.76,0,1,0,20.56,6.33L923.44,592.53l91.81,29.8A10.76,10.76,0,1,0,1021.89,601.86Z"/><path class="cls-2" d="M721,1226.38a12.78,12.78,0,0,1-12.21-16.54L876.45,665.18H712.91l-170,552.19a12.77,12.77,0,0,1-24.42-7.52L711.94,581.53a19.33,19.33,0,0,1,24.44-12.7l95.86,31.11a12.77,12.77,0,1,1-7.88,24.3L734.5,595.08l-13.72,44.55H884.32l17.89-58.1a19.33,19.33,0,0,1,24.44-12.7l95.87,31.11h0a12.77,12.77,0,1,1-7.88,24.3l-89.86-29.17L733.16,1217.36A12.71,12.71,0,0,1,721,1226.38Zm-9.53-565.24H879.18a2,2,0,0,1,1.93,2.61L712.6,1211a8.74,8.74,0,1,0,16.71,5.14L921.52,591.93a2,2,0,0,1,2.55-1.32l91.81,29.8a8.74,8.74,0,0,0,5.39-16.63L925.4,572.66a15.3,15.3,0,0,0-19.34,10l-18.33,59.53a2,2,0,0,1-1.93,1.42H718a2,2,0,0,1-1.93-2.61l15.12-49.12a2,2,0,0,1,2.55-1.32l91.81,29.8A8.74,8.74,0,0,0,831,603.78l-95.87-31.11a15.3,15.3,0,0,0-19.34,10L522.33,1211a8.74,8.74,0,1,0,16.71,5.14L709.5,662.57A2,2,0,0,1,711.42,661.14Z"/><path class="cls-1" d="M764.32,567.14a9.16,9.16,0,0,0-7.35,5.63c-3,6.78-9.11,21.25-10.3,26.66-1.57,7.17,10.08,13.22,16.14,8.07,0,0,2.91,8.52,18.15,11.65s22.64-13.45,24-22-24.2-27.34-32.5-17.93C772.44,579.26,772.92,566.34,764.32,567.14Z"/><path class="cls-2" d="M784.68,621.56a20.47,20.47,0,0,1-4.13-.44c-11.47-2.36-16.49-7.7-18.49-10.75-3.91,1.92-8.63,1-12-1-4.17-2.5-6.23-6.48-5.38-10.39,1.19-5.45,7-19.28,10.42-27a11.14,11.14,0,0,1,9-6.83h0a8,8,0,0,1,6.48,2.1c2.33,2.21,3.27,5.63,3.63,8.28,3.68-1.58,8.7-1,14.56,1.75,9.39,4.41,19.14,13.81,18.13,20.23-0.82,5.21-4.28,15.46-12,20.8A17.7,17.7,0,0,1,784.68,621.56ZM762.8,605.48a2,2,0,0,1,1.91,1.36c0.11,0.28,2.9,7.5,16.65,10.33A14.1,14.1,0,0,0,792.64,615c5.74-4,9.36-12.17,10.3-18.11,0.55-3.49-6.8-11.7-15.86-16-2.86-1.34-9.85-4.06-13.13-.33a2,2,0,0,1-3.53-1.41c0.06-1.77-.29-6.85-2.59-9a4,4,0,0,0-3.32-1h0a7.11,7.11,0,0,0-5.69,4.42c-2.67,6.14-9,21-10.17,26.28-0.57,2.59,1.44,4.83,3.51,6.07,2.65,1.59,6.71,2.28,9.35,0A2,2,0,0,1,762.8,605.48Zm1.51-38.34h0Z"/><path class="cls-1" d="M796.2,560.21c-11.24-5-28-6.72-34.51-5.6s-7.84,39.22-3.14,42.58,11.65-1.34,13-6.28,2.24-9.19,2.24-9.19,27.79,2.91,32.72-.67C806.5,581.05,814.8,568.5,796.2,560.21Z"/><path class="cls-2" d="M762.14,600.34a8.09,8.09,0,0,1-4.76-1.51c-5-3.58-4.13-26.78-1.79-37,1.33-5.82,3.16-8.74,5.76-9.18,6.7-1.15,23.93.51,35.68,5.75,7,3.14,11.34,7.27,12.81,12.3a14.76,14.76,0,0,1-1.64,11.5,2,2,0,0,1-.5.52c-4.8,3.49-25,1.92-32.32,1.23-0.39,1.71-1,4.48-1.88,7.53a13.18,13.18,0,0,1-8,8.29A10,10,0,0,1,762.14,600.34ZM762,556.6s-1.66.92-3,8.57c-2.28,12.91-1.2,28.61.72,30.41a4.72,4.72,0,0,0,4.39.37,9,9,0,0,0,5.46-5.55c1.31-4.81,2.2-9,2.21-9.07a2,2,0,0,1,2.18-1.59c10.88,1.14,27.33,1.82,31-.11a10.73,10.73,0,0,0,.93-7.87c-1.13-3.81-4.69-7.07-10.56-9.69h0c-10.9-4.86-27.29-6.5-33.35-5.46h0Zm44.48,24.46h0Z"/><path class="cls-2" d="M756,985.24H612.17a2,2,0,0,1-.77-0.15L461.67,923.44a2,2,0,0,1,.77-3.88H606.24a2,2,0,0,1,.77.15l149.74,61.65A2,2,0,0,1,756,985.24Zm-143.41-4H745.78L605.84,923.59H472.63Z"/><polygon class="cls-4" points="658.69 752.19 606.24 921.57 755.98 983.23 808.43 813.84 658.69 752.19"/><path class="cls-1" d="M754.41,791.61L746,818.69a5.88,5.88,0,0,1-7.86,3.7l-19.49-8a8.85,8.85,0,0,1-5.08-10.8l7.9-25.51Z"/><polygon class="cls-4" points="514.88 752.19 462.43 921.57 606.24 921.57 658.69 752.19 514.88 752.19"/><path class="cls-1" d="M544.44,869.81l-10,32.44a7.19,7.19,0,0,1-6.86,5.06H487.35a4.32,4.32,0,0,1-4.12-5.59l10-32.44a7.19,7.19,0,0,1,6.86-5.06h40.19A4.32,4.32,0,0,1,544.44,869.81Z"/><path class="cls-1" d="M609.63,867.82l-1.79,5.8a3.92,3.92,0,0,1-3.75,2.77H559.42a2.78,2.78,0,0,1-2.66-3.61l1.79-5.8a3.92,3.92,0,0,1,3.75-2.77H607A2.78,2.78,0,0,1,609.63,867.82Z"/><path class="cls-1" d="M603,887.63l-1.79,5.8a3.92,3.92,0,0,1-3.75,2.77H552.81a2.78,2.78,0,0,1-2.66-3.61l1.79-5.8a3.92,3.92,0,0,1,3.75-2.77h44.68A2.78,2.78,0,0,1,603,887.63Z"/><path class="cls-2" d="M609.76,912.23a2,2,0,0,1-.6-0.09,2,2,0,0,1-1.33-2.52l46-148.58a2,2,0,1,1,3.85,1.19l-46,148.58A2,2,0,0,1,609.76,912.23Z"/><polygon class="cls-3" points="326.91 1132.03 517.18 1132.03 715.29 1213.61 525.02 1213.61 326.91 1132.03"/><polygon class="cls-3" points="586.58 907.92 517.18 1132.03 715.29 1213.61 784.69 989.5 586.58 907.92"/><path class="cls-1" d="M713.22,960.07l-11.11,35.84a7.78,7.78,0,0,1-10.39,4.89l-25.78-10.62a11.71,11.71,0,0,1-6.72-14.29l10.45-33.76Z"/><polygon class="cls-3" points="396.31 907.92 326.91 1132.03 517.18 1132.03 586.58 907.92 396.31 907.92"/><path class="cls-1" d="M435.41,1063.55l-13.28,42.92a9.51,9.51,0,0,1-9.08,6.7H359.87a5.71,5.71,0,0,1-5.46-7.4l13.28-42.92a9.51,9.51,0,0,1,9.08-6.7H430A5.71,5.71,0,0,1,435.41,1063.55Z"/><path class="cls-1" d="M521.67,1060.91l-2.37,7.68a5.19,5.19,0,0,1-5,3.66H455.22a3.68,3.68,0,0,1-3.52-4.77l2.37-7.68a5.19,5.19,0,0,1,5-3.66h59.11A3.68,3.68,0,0,1,521.67,1060.91Z"/><path class="cls-1" d="M512.93,1087.13l-2.37,7.68a5.19,5.19,0,0,1-5,3.66H446.48a3.68,3.68,0,0,1-3.52-4.77l2.37-7.68a5.19,5.19,0,0,1,5-3.66h59.11A3.68,3.68,0,0,1,512.93,1087.13Z"/><path class="cls-2" d="M521.83,1119a2,2,0,0,1-.6-0.09,2,2,0,0,1-1.33-2.52l60.87-196.59a2,2,0,1,1,3.85,1.19l-60.87,196.59A2,2,0,0,1,521.83,1119Z"/><path class="cls-1" d="M725.56,1202.41L508.35,1113a12.1,12.1,0,0,0-4.61-.91H295.14a12.1,12.1,0,0,0-4.61,23.29l217.21,89.44a12.1,12.1,0,0,0,4.61.91H721A12.1,12.1,0,0,0,725.56,1202.41Zm-369.24-66.14H397l158.42,65.23H514.74ZM619,1201.5l-158.42-65.23h40.73l158.42,65.23H619Z"/><path class="cls-2" d="M721,1227.72H512.35a14,14,0,0,1-5.37-1.06l-217.21-89.44a14.12,14.12,0,0,1,5.37-27.17h208.6a14,14,0,0,1,5.37,1.06l217.21,89.44A14.12,14.12,0,0,1,721,1227.72ZM295.14,1114.08a10.09,10.09,0,0,0-3.84,19.41l217.21,89.44a10,10,0,0,0,3.84.76H721a10.09,10.09,0,0,0,3.84-19.41l-217.21-89.44a10,10,0,0,0-3.84-.76H295.14Zm364.63,89.44H619a2,2,0,0,1-.77-0.15l-158.42-65.23a2,2,0,0,1,.77-3.88h40.73a2,2,0,0,1,.77.15l158.42,65.23A2,2,0,0,1,659.77,1203.52Zm-40.33-4h30.14L501,1138.29H470.81Zm-64,4H514.74a2,2,0,0,1-.77-0.15l-158.42-65.23a2,2,0,0,1,.77-3.88H397a2,2,0,0,1,.77.15l158.42,65.23A2,2,0,0,1,555.47,1203.52Zm-40.33-4h30.13l-148.63-61.2H366.51Z"/><path class="cls-4" d="M435.13,1205.31V1288H405.23c-15.41,0-27.92-18.5-27.92-41.36s12.51-41.33,27.92-41.33h29.91Z"/><ellipse class="cls-3" cx="435.15" cy="1246.66" rx="27.9" ry="41.35"/><ellipse class="cls-4" cx="435.15" cy="1246.66" rx="14.14" ry="20.95"/><path class="cls-4" d="M617.52,1205.31V1288H587.61c-15.41,0-27.92-18.5-27.92-41.36s12.51-41.33,27.92-41.33h29.91Z"/><ellipse class="cls-3" cx="617.53" cy="1246.66" rx="27.9" ry="41.35"/><ellipse class="cls-4" cx="617.53" cy="1246.66" rx="14.14" ry="20.95"/><path class="cls-1" d="M995.93,561.22l-9.86,6.39s-34.74-8.29-39.67-7.62-18.6,37.43-17,43.7,9.19,4.71,12.1,1.57c0,0-1.12,8,15.24,14.46s32.27,1.12,36.75-11.65,11.68-15.29,11.68-15.29l10.06-5.32S1012.52,567.72,995.93,561.22Z"/><path class="cls-2" d="M970.56,624.49a39.7,39.7,0,0,1-14.59-2.9c-10.83-4.3-14.6-9.44-15.88-12.85a10.69,10.69,0,0,1-7.36,1,7.25,7.25,0,0,1-5.31-5.58c-1.63-6.51,8.8-34.26,14.38-42.51,1.59-2.35,2.93-3.49,4.33-3.68,4.85-.69,32.16,5.7,39.57,7.46l9.14-5.92a2,2,0,0,1,1.83-.19c17.49,6.85,20.42,27,20.54,27.83a2,2,0,0,1-1.06,2.06l-10.06,5.32-0.28.12s-6.4,2.52-10.44,14.06a22.81,22.81,0,0,1-12.3,13.18A30.15,30.15,0,0,1,970.56,624.49Zm-29.08-21.25a2,2,0,0,1,2,2.3s-0.39,6.59,14,12.3c8.43,3.35,17.15,3.49,23.94.4a18.56,18.56,0,0,0,10.16-10.84c4.42-12.59,11.51-16,12.74-16.46l8.64-4.57c-0.93-4.29-4.74-17.55-16.81-22.86l-9,5.81a2,2,0,0,1-1.56.27c-13.29-3.17-35.68-8-38.93-7.58-3.91,2-16.67,35.91-15.35,41.21a3.26,3.26,0,0,0,2.4,2.64,7.17,7.17,0,0,0,6.26-2A2,2,0,0,1,941.48,603.24Z"/><path class="cls-1" d="M1027.53,532.31l-36.75,25.1s1.12,30,26.33,45.49l42-26.56Z"/><path class="cls-2" d="M1017.11,604.92a2,2,0,0,1-1.06-.3c-25.83-15.85-27.25-45.87-27.29-47.14a2,2,0,0,1,.88-1.74l36.76-25.1a2,2,0,0,1,2.78.49l31.6,44a2,2,0,0,1-.56,2.88l-42,26.56A2,2,0,0,1,1017.11,604.92Zm-24.24-46.5c0.51,5.32,3.87,28.89,24.24,42.1l39.13-24.73-29.2-40.7Z"/><path class="cls-3" d="M1140.49,275c24.32,10.46,53.34,200.8,52,214.25S1071,589.23,1060.7,591.47s-40.79-50.2-40.79-58.27,88.3-70.37,88.3-70.37-14.19-119-16.58-135.36C1088.49,306,1101.94,258.45,1140.49,275Z"/><path class="cls-2" d="M1060,593.56c-1.93,0-4.12-1-6.68-3.07-13.07-10.54-35.45-49.75-35.45-57.29,0-8.13,60.86-52,88.17-71.33-1.49-12.51-14.2-118.8-16.44-134.12-1.91-13.08,1.88-33.93,12.66-46.83,6-7.24,13.46-11.06,22-11.35h0.07a2,2,0,0,1,.07,4c-7.38.25-13.8,3.58-19.08,9.9-9.66,11.56-13.56,31.28-11.76,43.66,2.37,16.25,16.45,134.23,16.59,135.42a2,2,0,0,1-.84,1.89c-41.37,29.19-86.09,63.25-87.46,68.85,0,5.57,21.24,43.77,34,54,2.81,2.27,4.07,2.23,4.39,2.15,5.41-1.18,50.28-32,87-60.73a2,2,0,0,1,2.48,3.18c-33,25.78-81.35,59.91-88.67,61.5A5.19,5.19,0,0,1,1060,593.56Z"/><path class="cls-2" d="M1157.74,480.76a2,2,0,0,1-1.15-.36c-17-11.85-41.33-13.75-41.57-13.76a2,2,0,1,1,.29-4c1,0.07,25.64,2,43.59,14.47A2,2,0,0,1,1157.74,480.76Z"/><path class="cls-1" d="M691.26,338.34a30.2,30.2,0,0,0-9.3,1.47,50.37,50.37,0,0,0-99.45,16,24,24,0,1,0-14.52,43H691.26A30.25,30.25,0,1,0,691.26,338.34Z"/><path class="cls-2" d="M691.26,400.86H568a26,26,0,1,1,0-52,25.65,25.65,0,0,1,12,3c-0.09-1.19-.14-2.33-0.14-3.45a52.42,52.42,0,0,1,103.64-11.15A32.27,32.27,0,1,1,691.26,400.86ZM568,352.94a21.95,21.95,0,1,0,0,43.89H691.26a28.24,28.24,0,1,0-8.68-55.1,2,2,0,0,1-2.61-1.58,48.35,48.35,0,0,0-95.47,15.41,2,2,0,0,1-3.22,1.9A21.74,21.74,0,0,0,568,352.94Z"/><path class="cls-1" d="M1246.16,852.09a21.26,21.26,0,0,0-6.55,1,35.46,35.46,0,0,0-70,11.3,16.86,16.86,0,1,0-10.22,30.27h86.79A21.3,21.3,0,0,0,1246.16,852.09Z"/><path class="cls-2" d="M1246.16,896.71h-86.79a18.89,18.89,0,0,1,0-37.77,18.68,18.68,0,0,1,7.81,1.7c0-.49,0-1,0-1.44a37.5,37.5,0,0,1,74-8.57A23.31,23.31,0,1,1,1246.16,896.71ZM1159.37,863a14.85,14.85,0,0,0,0,29.71h86.79a19.28,19.28,0,1,0-5.93-37.62,2,2,0,0,1-2.61-1.58,33.46,33.46,0,0,0-66.44,5.72,32.91,32.91,0,0,0,.41,4.94,2,2,0,0,1-3.22,1.9A14.7,14.7,0,0,0,1159.37,863Z"/><path class="cls-4" d="M1331.78,692.85h0a32.41,32.41,0,0,0-32.41,32.41h0A32.41,32.41,0,0,0,1267,692.85h0a32.41,32.41,0,0,0,32.41-32.41h0a32.41,32.41,0,0,0,32.41,32.41h0Z"/><path class="cls-4" d="M419.23,190.42h0a24.32,24.32,0,0,0-24.32,24.32h0a24.32,24.32,0,0,0-24.32-24.32h0a24.32,24.32,0,0,0,24.32-24.32h0a24.32,24.32,0,0,0,24.32,24.32h0Z"/><path class="cls-4" d="M457.52,714.35h0A29.66,29.66,0,0,0,427.85,744h0a29.66,29.66,0,0,0-29.66-29.66h0a29.66,29.66,0,0,0,29.66-29.66h0a29.66,29.66,0,0,0,29.66,29.66h0Z"/><circle class="cls-4" cx="814.77" cy="259.28" r="14.13"/><circle class="cls-3" cx="1275.53" cy="368.58" r="8.07"/><circle class="cls-3" cx="292.56" cy="867.81" r="12.1"/><circle class="cls-3" cx="290.19" cy="532.08" r="15.46"/><path class="cls-2" d="M686,1290H318.5a2,2,0,0,1,0-4H686A2,2,0,0,1,686,1290Z"/><path class="cls-2" d="M1205,1290H837.53a2,2,0,0,1,0-4H1205A2,2,0,0,1,1205,1290Z"/><path class="cls-2" d="M919.07,1332.16H683.43a2,2,0,1,1,0-4H919.07A2,2,0,1,1,919.07,1332.16Z"/><path class="cls-2" d="M619.39,1332.16H513.09a2,2,0,1,1,0-4h106.3A2,2,0,1,1,619.39,1332.16Z"/><path class="cls-2" d="M1025.79,1332.16H993.55a2,2,0,1,1,0-4h32.25A2,2,0,1,1,1025.79,1332.16Z"/></svg>