<svg width="244" height="242" viewBox="0 0 244 242" fill="none" xmlns="http://www.w3.org/2000/svg">
<rect width="1440" height="3000" transform="translate(-22 -9)" fill="white"/>
<path d="M235.5 117.5C235.5 182.117 183.117 234.5 118.5 234.5C53.8827 234.5 1.5 182.117 1.5 117.5C1.5 52.8827 53.8827 0.5 118.5 0.5C183.117 0.5 235.5 52.8827 235.5 117.5Z" fill="#6CAB52" stroke="#32940A"/>
<path d="M15.7539 121V99.9941H21.5547C28.957 99.9941 32.6582 103.407 32.6582 110.233C32.6582 113.476 31.6279 116.083 29.5674 118.056C27.5166 120.019 24.7676 121 21.3203 121H15.7539ZM18.2148 102.221V118.773H21.3496C24.1035 118.773 26.2471 118.036 27.7803 116.562C29.3135 115.087 30.0801 112.997 30.0801 110.292C30.0801 104.911 27.2188 102.221 21.4961 102.221H18.2148ZM60.8359 120.121C59.2832 120.941 57.3496 121.352 55.0352 121.352C52.0469 121.352 49.6543 120.39 47.8574 118.466C46.0605 116.542 45.1621 114.018 45.1621 110.893C45.1621 107.533 46.1729 104.818 48.1943 102.748C50.2158 100.678 52.7793 99.6426 55.8848 99.6426C57.877 99.6426 59.5273 99.9307 60.8359 100.507V103.129C59.332 102.289 57.6719 101.869 55.8555 101.869C53.4434 101.869 51.4854 102.675 49.9814 104.286C48.4873 105.897 47.7402 108.051 47.7402 110.746C47.7402 113.305 48.4385 115.346 49.835 116.869C51.2412 118.383 53.082 119.14 55.3574 119.14C57.4668 119.14 59.293 118.671 60.8359 117.733V120.121ZM84.5605 125.351H72.1094V123.607H84.5605V125.351ZM111.361 120.121C109.809 120.941 107.875 121.352 105.561 121.352C102.572 121.352 100.18 120.39 98.3828 118.466C96.5859 116.542 95.6875 114.018 95.6875 110.893C95.6875 107.533 96.6982 104.818 98.7197 102.748C100.741 100.678 103.305 99.6426 106.41 99.6426C108.402 99.6426 110.053 99.9307 111.361 100.507V103.129C109.857 102.289 108.197 101.869 106.381 101.869C103.969 101.869 102.011 102.675 100.507 104.286C99.0127 105.897 98.2656 108.051 98.2656 110.746C98.2656 113.305 98.9639 115.346 100.36 116.869C101.767 118.383 103.607 119.14 105.883 119.14C107.992 119.14 109.818 118.671 111.361 117.733V120.121ZM141.648 121H138.924L136.697 115.111H127.791L125.696 121H122.957L131.014 99.9941H133.562L141.648 121ZM135.892 112.899L132.596 103.949C132.488 103.656 132.381 103.188 132.273 102.543H132.215C132.117 103.139 132.005 103.607 131.878 103.949L128.611 112.899H135.892ZM169.562 121H166.633L163.117 115.111C162.795 114.564 162.482 114.101 162.18 113.72C161.877 113.329 161.564 113.012 161.242 112.768C160.93 112.523 160.588 112.348 160.217 112.24C159.855 112.123 159.445 112.064 158.986 112.064H156.965V121H154.504V99.9941H160.773C161.691 99.9941 162.536 100.111 163.308 100.346C164.089 100.57 164.763 100.917 165.329 101.386C165.905 101.854 166.354 102.44 166.677 103.144C166.999 103.837 167.16 104.652 167.16 105.59C167.16 106.322 167.048 106.996 166.823 107.611C166.608 108.217 166.296 108.759 165.886 109.237C165.485 109.716 164.997 110.126 164.421 110.468C163.854 110.8 163.215 111.059 162.502 111.244V111.303C162.854 111.459 163.156 111.64 163.41 111.845C163.674 112.04 163.923 112.274 164.157 112.548C164.392 112.821 164.621 113.134 164.846 113.485C165.08 113.827 165.339 114.228 165.622 114.687L169.562 121ZM156.965 102.221V109.838H160.305C160.92 109.838 161.486 109.745 162.004 109.56C162.531 109.374 162.985 109.11 163.366 108.769C163.747 108.417 164.045 107.992 164.26 107.494C164.475 106.986 164.582 106.42 164.582 105.795C164.582 104.672 164.216 103.798 163.483 103.173C162.761 102.538 161.711 102.221 160.334 102.221H156.965ZM197.477 119.564C195.367 120.756 193.023 121.352 190.445 121.352C187.447 121.352 185.021 120.385 183.165 118.451C181.319 116.518 180.396 113.959 180.396 110.775C180.396 107.523 181.422 104.857 183.473 102.777C185.533 100.688 188.141 99.6426 191.295 99.6426C193.58 99.6426 195.499 100.014 197.052 100.756V103.48C195.353 102.406 193.341 101.869 191.017 101.869C188.663 101.869 186.734 102.68 185.23 104.301C183.727 105.922 182.975 108.021 182.975 110.6C182.975 113.256 183.673 115.346 185.069 116.869C186.466 118.383 188.36 119.14 190.753 119.14C192.394 119.14 193.814 118.812 195.016 118.158V112.27H190.416V110.043H197.477V119.564ZM220.586 121.352C217.607 121.352 215.22 120.37 213.423 118.407C211.636 116.444 210.742 113.891 210.742 110.746C210.742 107.367 211.655 104.672 213.481 102.66C215.308 100.648 217.793 99.6426 220.938 99.6426C223.838 99.6426 226.172 100.619 227.939 102.572C229.717 104.525 230.605 107.079 230.605 110.233C230.605 113.661 229.697 116.371 227.881 118.363C226.064 120.355 223.633 121.352 220.586 121.352ZM220.762 101.869C218.555 101.869 216.763 102.665 215.386 104.257C214.009 105.849 213.32 107.938 213.32 110.526C213.32 113.114 213.989 115.199 215.327 116.781C216.675 118.354 218.428 119.14 220.586 119.14C222.891 119.14 224.707 118.388 226.035 116.884C227.363 115.38 228.027 113.275 228.027 110.57C228.027 107.797 227.383 105.653 226.094 104.14C224.805 102.626 223.027 101.869 220.762 101.869Z" fill="#262626"/>
<path d="M20.7422 136.094H17.5781V143H16.2969V135H20.7422V136.094ZM29.0944 141.844H29.0631V146.68H27.7819V135H29.0631V136.406H29.0944C29.7246 135.344 30.6465 134.812 31.86 134.812C32.8913 134.812 33.6959 135.172 34.2741 135.891C34.8522 136.604 35.1413 137.562 35.1413 138.766C35.1413 140.104 34.8157 141.177 34.1647 141.984C33.5136 142.786 32.623 143.188 31.4928 143.188C30.4564 143.188 29.6569 142.74 29.0944 141.844ZM29.0631 138.617V139.734C29.0631 140.396 29.2767 140.958 29.7038 141.422C30.136 141.88 30.6829 142.109 31.3444 142.109C32.1204 142.109 32.7272 141.812 33.1647 141.219C33.6074 140.625 33.8288 139.799 33.8288 138.742C33.8288 137.852 33.623 137.154 33.2116 136.648C32.8001 136.143 32.2428 135.891 31.5397 135.891C30.7949 135.891 30.1959 136.151 29.7428 136.672C29.2897 137.188 29.0631 137.836 29.0631 138.617ZM48.9153 135L45.2356 144.281C44.5794 145.938 43.6575 146.766 42.47 146.766C42.1367 146.766 41.858 146.732 41.6341 146.664V145.516C41.9101 145.609 42.1627 145.656 42.3919 145.656C43.0377 145.656 43.5221 145.271 43.845 144.5L44.4856 142.984L41.3606 135H42.7825L44.9466 141.156C44.9726 141.234 45.0273 141.438 45.1106 141.766H45.1575C45.1835 141.641 45.2356 141.443 45.3138 141.172L47.5872 135H48.9153ZM54.9863 142.773V141.516C55.6842 141.906 56.4993 142.102 57.4316 142.102C58.843 142.102 59.5488 141.654 59.5488 140.758C59.5488 139.872 58.7753 139.43 57.2284 139.43H56.4394V138.344H57.1894C58.5488 138.344 59.2284 137.922 59.2284 137.078C59.2284 136.719 59.0722 136.432 58.7597 136.219C58.4472 136.005 58.0201 135.898 57.4784 135.898C56.7024 135.898 55.9238 136.094 55.1425 136.484V135.289C56.0279 134.966 56.8404 134.805 57.58 134.805C59.5279 134.805 60.5019 135.521 60.5019 136.953C60.5019 137.417 60.356 137.818 60.0644 138.156C59.7779 138.49 59.3743 138.711 58.8534 138.82V138.859C59.4472 138.906 59.9238 139.107 60.2831 139.461C60.6425 139.815 60.8222 140.263 60.8222 140.805C60.8222 141.534 60.5279 142.115 59.9394 142.547C59.3508 142.979 58.5409 143.195 57.5097 143.195C56.4107 143.195 55.5696 143.055 54.9863 142.773ZM71.5025 143.188C70.3202 143.188 69.3749 142.815 68.6666 142.07C67.9634 141.32 67.6119 140.328 67.6119 139.094C67.6119 137.75 67.9791 136.701 68.7134 135.945C69.4478 135.19 70.44 134.812 71.69 134.812C72.8827 134.812 73.8124 135.18 74.4791 135.914C75.1509 136.648 75.4869 137.667 75.4869 138.969C75.4869 140.245 75.1249 141.268 74.4009 142.039C73.6822 142.805 72.716 143.188 71.5025 143.188ZM71.5963 135.891C70.7733 135.891 70.1223 136.172 69.6431 136.734C69.164 137.292 68.9244 138.062 68.9244 139.047C68.9244 139.995 69.1666 140.742 69.6509 141.289C70.1353 141.836 70.7838 142.109 71.5963 142.109C72.4244 142.109 73.0598 141.841 73.5025 141.305C73.9504 140.768 74.1744 140.005 74.1744 139.016C74.1744 138.016 73.9504 137.245 73.5025 136.703C73.0598 136.161 72.4244 135.891 71.5963 135.891ZM89.5344 143H88.2531V136.094H84.175V143H82.8938V135H89.5344V143ZM103.918 139.32H98.2694C98.2902 140.211 98.5298 140.898 98.9881 141.383C99.4465 141.867 100.077 142.109 100.879 142.109C101.78 142.109 102.608 141.812 103.363 141.219V142.422C102.66 142.932 101.73 143.188 100.574 143.188C99.4439 143.188 98.5558 142.826 97.91 142.102C97.2642 141.372 96.9413 140.349 96.9413 139.031C96.9413 137.786 97.2928 136.773 97.9959 135.992C98.7043 135.206 99.5819 134.812 100.629 134.812C101.676 134.812 102.486 135.151 103.058 135.828C103.631 136.505 103.918 137.445 103.918 138.648V139.32ZM102.605 138.234C102.6 137.495 102.42 136.919 102.066 136.508C101.717 136.096 101.23 135.891 100.605 135.891C100.001 135.891 99.4881 136.107 99.0663 136.539C98.6444 136.971 98.384 137.536 98.285 138.234H102.605ZM112.536 141.844H112.504V146.68H111.223V135H112.504V136.406H112.536C113.166 135.344 114.088 134.812 115.301 134.812C116.333 134.812 117.137 135.172 117.715 135.891C118.293 136.604 118.583 137.562 118.583 138.766C118.583 140.104 118.257 141.177 117.606 141.984C116.955 142.786 116.064 143.188 114.934 143.188C113.898 143.188 113.098 142.74 112.536 141.844ZM112.504 138.617V139.734C112.504 140.396 112.718 140.958 113.145 141.422C113.577 141.88 114.124 142.109 114.786 142.109C115.562 142.109 116.168 141.812 116.606 141.219C117.049 140.625 117.27 139.799 117.27 138.742C117.27 137.852 117.064 137.154 116.653 136.648C116.241 136.143 115.684 135.891 114.981 135.891C114.236 135.891 113.637 136.151 113.184 136.672C112.731 137.188 112.504 137.836 112.504 138.617ZM132.419 139.32H126.771C126.791 140.211 127.031 140.898 127.489 141.383C127.948 141.867 128.578 142.109 129.38 142.109C130.281 142.109 131.109 141.812 131.864 141.219V142.422C131.161 142.932 130.232 143.188 129.075 143.188C127.945 143.188 127.057 142.826 126.411 142.102C125.765 141.372 125.443 140.349 125.443 139.031C125.443 137.786 125.794 136.773 126.497 135.992C127.206 135.206 128.083 134.812 129.13 134.812C130.177 134.812 130.987 135.151 131.56 135.828C132.133 136.505 132.419 137.445 132.419 138.648V139.32ZM131.107 138.234C131.101 137.495 130.922 136.919 130.568 136.508C130.219 136.096 129.732 135.891 129.107 135.891C128.502 135.891 127.989 136.107 127.568 136.539C127.146 136.971 126.885 137.536 126.786 138.234H131.107ZM139.724 143V135H143.209C143.995 135 144.615 135.174 145.068 135.523C145.526 135.872 145.756 136.349 145.756 136.953C145.756 137.99 145.245 138.62 144.224 138.844C145.448 139 146.06 139.617 146.06 140.695C146.06 141.346 145.808 141.893 145.302 142.336C144.802 142.779 144.18 143 143.435 143H139.724ZM141.006 136.094V138.344H142.927C143.959 138.344 144.474 137.943 144.474 137.141C144.474 136.443 144.011 136.094 143.084 136.094H141.006ZM141.006 139.438V141.906H143.224C144.261 141.906 144.779 141.487 144.779 140.648C144.779 139.841 144.198 139.438 143.037 139.438H141.006ZM156.913 143.188C155.73 143.188 154.785 142.815 154.077 142.07C153.373 141.32 153.022 140.328 153.022 139.094C153.022 137.75 153.389 136.701 154.123 135.945C154.858 135.19 155.85 134.812 157.1 134.812C158.293 134.812 159.222 135.18 159.889 135.914C160.561 136.648 160.897 137.667 160.897 138.969C160.897 140.245 160.535 141.268 159.811 142.039C159.092 142.805 158.126 143.188 156.913 143.188ZM157.006 135.891C156.183 135.891 155.532 136.172 155.053 136.734C154.574 137.292 154.334 138.062 154.334 139.047C154.334 139.995 154.577 140.742 155.061 141.289C155.545 141.836 156.194 142.109 157.006 142.109C157.834 142.109 158.47 141.841 158.913 141.305C159.36 140.768 159.584 140.005 159.584 139.016C159.584 138.016 159.36 137.245 158.913 136.703C158.47 136.161 157.834 135.891 157.006 135.891ZM167.632 142.773V141.516C168.33 141.906 169.145 142.102 170.077 142.102C171.489 142.102 172.194 141.654 172.194 140.758C172.194 139.872 171.421 139.43 169.874 139.43H169.085V138.344H169.835C171.194 138.344 171.874 137.922 171.874 137.078C171.874 136.719 171.718 136.432 171.405 136.219C171.093 136.005 170.666 135.898 170.124 135.898C169.348 135.898 168.569 136.094 167.788 136.484V135.289C168.674 134.966 169.486 134.805 170.226 134.805C172.174 134.805 173.148 135.521 173.148 136.953C173.148 137.417 173.002 137.818 172.71 138.156C172.424 138.49 172.02 138.711 171.499 138.82V138.859C172.093 138.906 172.569 139.107 172.929 139.461C173.288 139.815 173.468 140.263 173.468 140.805C173.468 141.534 173.174 142.115 172.585 142.547C171.996 142.979 171.187 143.195 170.155 143.195C169.056 143.195 168.215 143.055 167.632 142.773ZM187.445 143H185.648L182.117 139.156H182.086V143H180.804V135H182.086V138.664H182.117L185.476 135H187.156L183.445 138.859L187.445 143ZM200.821 143H199.664V136.617C199.55 136.841 199.375 137.156 199.141 137.562L195.446 143H194.118V135H195.289V141.305C195.352 141.154 195.487 140.896 195.696 140.531L199.493 135H200.821V143Z" fill="#262626"/>
<circle cx="23" cy="81" r="6" fill="#F65F5C"/>
<circle cx="43" cy="81" r="6" fill="#A7A8A1"/>
<circle cx="64" cy="81" r="6" fill="#F9BE50"/>
</svg>
